<mxfile host="app.diagrams.net" modified="2024-01-18T05:17:16.077Z" agent="Mozilla/5.0 (Windows NT 10.0; Win64; x64) AppleWebKit/537.36 (KHTML, like Gecko) Chrome/120.0.0.0 Safari/537.36 Edg/120.0.0.0" etag="Bul0IvV5X4nSs3Xa7T7B" version="21.8.2" type="github">
  <diagram name="Page-1" id="PmTRdXq-IHFucuTStrHl">
    <mxGraphModel dx="2604" dy="865" grid="1" gridSize="10" guides="1" tooltips="1" connect="1" arrows="1" fold="1" page="1" pageScale="1" pageWidth="850" pageHeight="1100" math="0" shadow="0">
      <root>
        <mxCell id="0" />
        <mxCell id="1" parent="0" />
        <mxCell id="kXstX9Qdc0MzjJcm4sS2-1" value="NA Flow" style="text;html=1;strokeColor=none;fillColor=none;align=center;verticalAlign=middle;whiteSpace=wrap;rounded=0;" vertex="1" parent="1">
          <mxGeometry x="40" y="10" width="60" height="30" as="geometry" />
        </mxCell>
        <mxCell id="kXstX9Qdc0MzjJcm4sS2-75" style="edgeStyle=orthogonalEdgeStyle;rounded=0;orthogonalLoop=1;jettySize=auto;html=1;exitX=0.145;exitY=1;exitDx=0;exitDy=-4.35;exitPerimeter=0;entryX=1;entryY=0.75;entryDx=0;entryDy=0;startArrow=classic;startFill=1;" edge="1" parent="1" source="kXstX9Qdc0MzjJcm4sS2-2" target="kXstX9Qdc0MzjJcm4sS2-65">
          <mxGeometry relative="1" as="geometry">
            <Array as="points">
              <mxPoint x="1032" y="530" />
              <mxPoint x="480" y="530" />
              <mxPoint x="480" y="410" />
            </Array>
          </mxGeometry>
        </mxCell>
        <mxCell id="kXstX9Qdc0MzjJcm4sS2-2" value="DWHPROD" style="shape=cylinder3;whiteSpace=wrap;html=1;boundedLbl=1;backgroundOutline=1;size=15;" vertex="1" parent="1">
          <mxGeometry x="1020" y="150" width="80" height="110" as="geometry" />
        </mxCell>
        <mxCell id="kXstX9Qdc0MzjJcm4sS2-12" value="" style="endArrow=classic;startArrow=classic;html=1;rounded=0;entryX=0.5;entryY=1;entryDx=0;entryDy=0;entryPerimeter=0;" edge="1" parent="1" target="kXstX9Qdc0MzjJcm4sS2-3">
          <mxGeometry width="50" height="50" relative="1" as="geometry">
            <mxPoint x="480" y="980" as="sourcePoint" />
            <mxPoint x="670" y="980" as="targetPoint" />
            <Array as="points">
              <mxPoint x="580" y="980" />
              <mxPoint x="670" y="980" />
            </Array>
          </mxGeometry>
        </mxCell>
        <mxCell id="kXstX9Qdc0MzjJcm4sS2-18" style="edgeStyle=orthogonalEdgeStyle;rounded=0;orthogonalLoop=1;jettySize=auto;html=1;exitX=1;exitY=0.5;exitDx=0;exitDy=0;entryX=0;entryY=0.5;entryDx=0;entryDy=0;" edge="1" parent="1" source="kXstX9Qdc0MzjJcm4sS2-15">
          <mxGeometry relative="1" as="geometry">
            <mxPoint x="-40" y="890" as="targetPoint" />
            <Array as="points">
              <mxPoint x="-60" y="890" />
              <mxPoint x="-60" y="891" />
            </Array>
          </mxGeometry>
        </mxCell>
        <mxCell id="kXstX9Qdc0MzjJcm4sS2-15" value="Client Server" style="whiteSpace=wrap;html=1;aspect=fixed;" vertex="1" parent="1">
          <mxGeometry x="-220" y="850" width="80" height="80" as="geometry" />
        </mxCell>
        <mxCell id="kXstX9Qdc0MzjJcm4sS2-3" value="PROD2" style="shape=cylinder3;whiteSpace=wrap;html=1;boundedLbl=1;backgroundOutline=1;size=15;" vertex="1" parent="1">
          <mxGeometry x="630" y="850" width="80" height="110" as="geometry" />
        </mxCell>
        <mxCell id="kXstX9Qdc0MzjJcm4sS2-23" value="" style="endArrow=none;dashed=1;html=1;dashPattern=1 3;strokeWidth=2;rounded=0;" edge="1" parent="1">
          <mxGeometry width="50" height="50" relative="1" as="geometry">
            <mxPoint x="-90" y="1090" as="sourcePoint" />
            <mxPoint x="-90" y="740" as="targetPoint" />
            <Array as="points">
              <mxPoint x="-90" y="850" />
            </Array>
          </mxGeometry>
        </mxCell>
        <mxCell id="kXstX9Qdc0MzjJcm4sS2-26" value="processing-engine-global" style="shape=process;whiteSpace=wrap;html=1;backgroundOutline=1;" vertex="1" parent="1">
          <mxGeometry x="360" y="950" width="120" height="60" as="geometry" />
        </mxCell>
        <mxCell id="kXstX9Qdc0MzjJcm4sS2-27" value="autoload" style="shape=process;whiteSpace=wrap;html=1;backgroundOutline=1;" vertex="1" parent="1">
          <mxGeometry x="360" y="850" width="120" height="60" as="geometry" />
        </mxCell>
        <mxCell id="kXstX9Qdc0MzjJcm4sS2-28" style="edgeStyle=orthogonalEdgeStyle;rounded=0;orthogonalLoop=1;jettySize=auto;html=1;exitX=1;exitY=0.5;exitDx=0;exitDy=0;entryX=0;entryY=0;entryDx=0;entryDy=35;entryPerimeter=0;" edge="1" parent="1" source="kXstX9Qdc0MzjJcm4sS2-27" target="kXstX9Qdc0MzjJcm4sS2-3">
          <mxGeometry relative="1" as="geometry" />
        </mxCell>
        <mxCell id="kXstX9Qdc0MzjJcm4sS2-29" value="sfssync" style="shape=process;whiteSpace=wrap;html=1;backgroundOutline=1;" vertex="1" parent="1">
          <mxGeometry x="-40" y="860" width="120" height="60" as="geometry" />
        </mxCell>
        <mxCell id="kXstX9Qdc0MzjJcm4sS2-48" style="edgeStyle=orthogonalEdgeStyle;rounded=0;orthogonalLoop=1;jettySize=auto;html=1;exitX=1;exitY=0.25;exitDx=0;exitDy=0;entryX=0;entryY=0.5;entryDx=0;entryDy=0;" edge="1" parent="1" source="kXstX9Qdc0MzjJcm4sS2-30" target="kXstX9Qdc0MzjJcm4sS2-34">
          <mxGeometry relative="1" as="geometry" />
        </mxCell>
        <mxCell id="kXstX9Qdc0MzjJcm4sS2-49" style="edgeStyle=orthogonalEdgeStyle;rounded=0;orthogonalLoop=1;jettySize=auto;html=1;exitX=1;exitY=0.5;exitDx=0;exitDy=0;entryX=0;entryY=0.5;entryDx=0;entryDy=0;" edge="1" parent="1" source="kXstX9Qdc0MzjJcm4sS2-30" target="kXstX9Qdc0MzjJcm4sS2-43">
          <mxGeometry relative="1" as="geometry" />
        </mxCell>
        <mxCell id="kXstX9Qdc0MzjJcm4sS2-51" style="edgeStyle=orthogonalEdgeStyle;rounded=0;orthogonalLoop=1;jettySize=auto;html=1;exitX=0.75;exitY=1;exitDx=0;exitDy=0;entryX=0;entryY=0.5;entryDx=0;entryDy=0;" edge="1" parent="1" source="kXstX9Qdc0MzjJcm4sS2-30" target="kXstX9Qdc0MzjJcm4sS2-44">
          <mxGeometry relative="1" as="geometry" />
        </mxCell>
        <mxCell id="kXstX9Qdc0MzjJcm4sS2-52" style="edgeStyle=orthogonalEdgeStyle;rounded=0;orthogonalLoop=1;jettySize=auto;html=1;exitX=0.5;exitY=1;exitDx=0;exitDy=0;entryX=0;entryY=0.5;entryDx=0;entryDy=0;" edge="1" parent="1" source="kXstX9Qdc0MzjJcm4sS2-30" target="kXstX9Qdc0MzjJcm4sS2-45">
          <mxGeometry relative="1" as="geometry" />
        </mxCell>
        <mxCell id="kXstX9Qdc0MzjJcm4sS2-30" value="start-processes.ksh" style="shape=process;whiteSpace=wrap;html=1;backgroundOutline=1;" vertex="1" parent="1">
          <mxGeometry x="470" y="30" width="120" height="60" as="geometry" />
        </mxCell>
        <mxCell id="kXstX9Qdc0MzjJcm4sS2-66" style="edgeStyle=orthogonalEdgeStyle;rounded=0;orthogonalLoop=1;jettySize=auto;html=1;exitX=0.75;exitY=1;exitDx=0;exitDy=0;entryX=0;entryY=0.5;entryDx=0;entryDy=0;" edge="1" parent="1" source="kXstX9Qdc0MzjJcm4sS2-31" target="kXstX9Qdc0MzjJcm4sS2-65">
          <mxGeometry relative="1" as="geometry" />
        </mxCell>
        <mxCell id="kXstX9Qdc0MzjJcm4sS2-93" value="w/ params" style="edgeLabel;html=1;align=center;verticalAlign=middle;resizable=0;points=[];" vertex="1" connectable="0" parent="kXstX9Qdc0MzjJcm4sS2-66">
          <mxGeometry x="0.3765" y="3" relative="1" as="geometry">
            <mxPoint as="offset" />
          </mxGeometry>
        </mxCell>
        <mxCell id="kXstX9Qdc0MzjJcm4sS2-74" style="edgeStyle=orthogonalEdgeStyle;rounded=0;orthogonalLoop=1;jettySize=auto;html=1;exitX=0.5;exitY=1;exitDx=0;exitDy=0;entryX=0;entryY=0.5;entryDx=0;entryDy=0;" edge="1" parent="1" source="kXstX9Qdc0MzjJcm4sS2-31" target="kXstX9Qdc0MzjJcm4sS2-73">
          <mxGeometry relative="1" as="geometry" />
        </mxCell>
        <mxCell id="kXstX9Qdc0MzjJcm4sS2-94" value="w/ params" style="edgeLabel;html=1;align=center;verticalAlign=middle;resizable=0;points=[];" vertex="1" connectable="0" parent="kXstX9Qdc0MzjJcm4sS2-74">
          <mxGeometry x="0.3271" y="-2" relative="1" as="geometry">
            <mxPoint as="offset" />
          </mxGeometry>
        </mxCell>
        <mxCell id="kXstX9Qdc0MzjJcm4sS2-80" style="edgeStyle=orthogonalEdgeStyle;rounded=0;orthogonalLoop=1;jettySize=auto;html=1;exitX=0.25;exitY=1;exitDx=0;exitDy=0;entryX=0;entryY=0.5;entryDx=0;entryDy=0;" edge="1" parent="1" source="kXstX9Qdc0MzjJcm4sS2-31" target="kXstX9Qdc0MzjJcm4sS2-78">
          <mxGeometry relative="1" as="geometry" />
        </mxCell>
        <mxCell id="kXstX9Qdc0MzjJcm4sS2-96" value="w/ params" style="edgeLabel;html=1;align=center;verticalAlign=middle;resizable=0;points=[];" vertex="1" connectable="0" parent="kXstX9Qdc0MzjJcm4sS2-80">
          <mxGeometry x="0.7476" y="-2" relative="1" as="geometry">
            <mxPoint as="offset" />
          </mxGeometry>
        </mxCell>
        <mxCell id="kXstX9Qdc0MzjJcm4sS2-31" value="cron" style="shape=process;whiteSpace=wrap;html=1;backgroundOutline=1;" vertex="1" parent="1">
          <mxGeometry x="40" y="40" width="120" height="60" as="geometry" />
        </mxCell>
        <mxCell id="kXstX9Qdc0MzjJcm4sS2-32" value="dwh_queue_manager.ksh&lt;br&gt;" style="shape=process;whiteSpace=wrap;html=1;backgroundOutline=1;" vertex="1" parent="1">
          <mxGeometry x="160" y="120" width="200" height="60" as="geometry" />
        </mxCell>
        <mxCell id="kXstX9Qdc0MzjJcm4sS2-42" style="edgeStyle=orthogonalEdgeStyle;rounded=0;orthogonalLoop=1;jettySize=auto;html=1;exitX=0.5;exitY=1;exitDx=0;exitDy=0;entryX=0.5;entryY=0;entryDx=0;entryDy=0;" edge="1" parent="1" source="kXstX9Qdc0MzjJcm4sS2-33" target="kXstX9Qdc0MzjJcm4sS2-40">
          <mxGeometry relative="1" as="geometry" />
        </mxCell>
        <mxCell id="kXstX9Qdc0MzjJcm4sS2-33" value="process_enriched_data.ksh&lt;br&gt;" style="shape=process;whiteSpace=wrap;html=1;backgroundOutline=1;" vertex="1" parent="1">
          <mxGeometry x="200" y="220" width="200" height="40" as="geometry" />
        </mxCell>
        <mxCell id="kXstX9Qdc0MzjJcm4sS2-34" value="process_systid.pl" style="shape=process;whiteSpace=wrap;html=1;backgroundOutline=1;" vertex="1" parent="1">
          <mxGeometry x="660" y="10" width="140" height="40" as="geometry" />
        </mxCell>
        <mxCell id="kXstX9Qdc0MzjJcm4sS2-38" style="edgeStyle=orthogonalEdgeStyle;rounded=0;orthogonalLoop=1;jettySize=auto;html=1;exitX=1;exitY=0.25;exitDx=0;exitDy=0;entryX=0.575;entryY=-0.02;entryDx=0;entryDy=0;entryPerimeter=0;" edge="1" parent="1" source="kXstX9Qdc0MzjJcm4sS2-31" target="kXstX9Qdc0MzjJcm4sS2-32">
          <mxGeometry relative="1" as="geometry" />
        </mxCell>
        <mxCell id="kXstX9Qdc0MzjJcm4sS2-70" style="edgeStyle=orthogonalEdgeStyle;rounded=0;orthogonalLoop=1;jettySize=auto;html=1;exitX=1;exitY=0.25;exitDx=0;exitDy=0;entryX=0;entryY=0.5;entryDx=0;entryDy=0;dashed=1;" edge="1" parent="1" source="kXstX9Qdc0MzjJcm4sS2-40" target="kXstX9Qdc0MzjJcm4sS2-30">
          <mxGeometry relative="1" as="geometry" />
        </mxCell>
        <mxCell id="kXstX9Qdc0MzjJcm4sS2-40" value="set_dwhprod_env.sh" style="shape=process;whiteSpace=wrap;html=1;backgroundOutline=1;" vertex="1" parent="1">
          <mxGeometry x="210" y="290" width="190" height="50" as="geometry" />
        </mxCell>
        <mxCell id="kXstX9Qdc0MzjJcm4sS2-41" style="edgeStyle=orthogonalEdgeStyle;rounded=0;orthogonalLoop=1;jettySize=auto;html=1;exitX=0.5;exitY=1;exitDx=0;exitDy=0;entryX=0.316;entryY=-0.13;entryDx=0;entryDy=0;entryPerimeter=0;" edge="1" parent="1" source="kXstX9Qdc0MzjJcm4sS2-32" target="kXstX9Qdc0MzjJcm4sS2-33">
          <mxGeometry relative="1" as="geometry" />
        </mxCell>
        <mxCell id="kXstX9Qdc0MzjJcm4sS2-43" value="process_swmap.pl" style="shape=process;whiteSpace=wrap;html=1;backgroundOutline=1;" vertex="1" parent="1">
          <mxGeometry x="660" y="70" width="140" height="40" as="geometry" />
        </mxCell>
        <mxCell id="kXstX9Qdc0MzjJcm4sS2-44" value="process_hash_value.pl" style="shape=process;whiteSpace=wrap;html=1;backgroundOutline=1;" vertex="1" parent="1">
          <mxGeometry x="645" y="130" width="170" height="40" as="geometry" />
        </mxCell>
        <mxCell id="kXstX9Qdc0MzjJcm4sS2-56" style="edgeStyle=orthogonalEdgeStyle;rounded=0;orthogonalLoop=1;jettySize=auto;html=1;exitX=0.75;exitY=1;exitDx=0;exitDy=0;entryX=0.75;entryY=0;entryDx=0;entryDy=0;" edge="1" parent="1" source="kXstX9Qdc0MzjJcm4sS2-45" target="kXstX9Qdc0MzjJcm4sS2-53">
          <mxGeometry relative="1" as="geometry" />
        </mxCell>
        <mxCell id="kXstX9Qdc0MzjJcm4sS2-57" style="edgeStyle=orthogonalEdgeStyle;rounded=0;orthogonalLoop=1;jettySize=auto;html=1;exitX=0.5;exitY=1;exitDx=0;exitDy=0;entryX=0;entryY=0.5;entryDx=0;entryDy=0;strokeColor=default;" edge="1" parent="1" source="kXstX9Qdc0MzjJcm4sS2-45" target="kXstX9Qdc0MzjJcm4sS2-55">
          <mxGeometry relative="1" as="geometry">
            <Array as="points">
              <mxPoint x="720" y="280" />
              <mxPoint x="550" y="280" />
              <mxPoint x="550" y="395" />
            </Array>
          </mxGeometry>
        </mxCell>
        <mxCell id="kXstX9Qdc0MzjJcm4sS2-58" style="edgeStyle=orthogonalEdgeStyle;rounded=0;orthogonalLoop=1;jettySize=auto;html=1;exitX=0.25;exitY=1;exitDx=0;exitDy=0;entryX=0;entryY=0.5;entryDx=0;entryDy=0;" edge="1" parent="1" source="kXstX9Qdc0MzjJcm4sS2-45" target="kXstX9Qdc0MzjJcm4sS2-54">
          <mxGeometry relative="1" as="geometry">
            <mxPoint x="550" y="480" as="targetPoint" />
            <Array as="points">
              <mxPoint x="685" y="260" />
              <mxPoint x="520" y="260" />
              <mxPoint x="520" y="480" />
              <mxPoint x="590" y="480" />
            </Array>
          </mxGeometry>
        </mxCell>
        <mxCell id="kXstX9Qdc0MzjJcm4sS2-45" value="dwh_dbload.ksh" style="shape=process;whiteSpace=wrap;html=1;backgroundOutline=1;" vertex="1" parent="1">
          <mxGeometry x="650" y="200" width="140" height="40" as="geometry" />
        </mxCell>
        <mxCell id="kXstX9Qdc0MzjJcm4sS2-53" value="dwh_process_gacdw.ksh" style="shape=process;whiteSpace=wrap;html=1;backgroundOutline=1;" vertex="1" parent="1">
          <mxGeometry x="590" y="300" width="210" height="50" as="geometry" />
        </mxCell>
        <mxCell id="kXstX9Qdc0MzjJcm4sS2-54" value="dwh_process_default_upd_gacdw_upd_systid.ksh" style="shape=process;whiteSpace=wrap;html=1;backgroundOutline=1;" vertex="1" parent="1">
          <mxGeometry x="590" y="450" width="340" height="50" as="geometry" />
        </mxCell>
        <mxCell id="kXstX9Qdc0MzjJcm4sS2-55" value="dwh_status_gacdw.ksh" style="shape=process;whiteSpace=wrap;html=1;backgroundOutline=1;" vertex="1" parent="1">
          <mxGeometry x="591" y="370" width="280" height="50" as="geometry" />
        </mxCell>
        <mxCell id="kXstX9Qdc0MzjJcm4sS2-60" value="" style="endArrow=classic;startArrow=classic;html=1;rounded=0;exitX=1;exitY=0.5;exitDx=0;exitDy=0;entryX=0.01;entryY=0.247;entryDx=0;entryDy=0;entryPerimeter=0;" edge="1" parent="1" source="kXstX9Qdc0MzjJcm4sS2-53" target="kXstX9Qdc0MzjJcm4sS2-2">
          <mxGeometry width="50" height="50" relative="1" as="geometry">
            <mxPoint x="815" y="340" as="sourcePoint" />
            <mxPoint x="865" y="290" as="targetPoint" />
            <Array as="points">
              <mxPoint x="830" y="325" />
              <mxPoint x="830" y="180" />
            </Array>
          </mxGeometry>
        </mxCell>
        <mxCell id="kXstX9Qdc0MzjJcm4sS2-62" style="edgeStyle=orthogonalEdgeStyle;rounded=0;orthogonalLoop=1;jettySize=auto;html=1;exitX=1;exitY=0.5;exitDx=0;exitDy=0;entryX=0;entryY=0;entryDx=0;entryDy=75;entryPerimeter=0;startArrow=classic;startFill=1;" edge="1" parent="1" source="kXstX9Qdc0MzjJcm4sS2-54" target="kXstX9Qdc0MzjJcm4sS2-2">
          <mxGeometry relative="1" as="geometry" />
        </mxCell>
        <mxCell id="kXstX9Qdc0MzjJcm4sS2-64" style="edgeStyle=orthogonalEdgeStyle;rounded=0;orthogonalLoop=1;jettySize=auto;html=1;exitX=1;exitY=0.25;exitDx=0;exitDy=0;entryX=0;entryY=0.5;entryDx=0;entryDy=0;entryPerimeter=0;startArrow=classic;startFill=1;" edge="1" parent="1" source="kXstX9Qdc0MzjJcm4sS2-55" target="kXstX9Qdc0MzjJcm4sS2-2">
          <mxGeometry relative="1" as="geometry" />
        </mxCell>
        <mxCell id="kXstX9Qdc0MzjJcm4sS2-65" value="sesdr_get_merged_systid.ksh" style="shape=process;whiteSpace=wrap;html=1;backgroundOutline=1;" vertex="1" parent="1">
          <mxGeometry x="170" y="380" width="220" height="40" as="geometry" />
        </mxCell>
        <mxCell id="kXstX9Qdc0MzjJcm4sS2-76" style="edgeStyle=orthogonalEdgeStyle;rounded=0;orthogonalLoop=1;jettySize=auto;html=1;exitX=1;exitY=0.5;exitDx=0;exitDy=0;entryX=0.5;entryY=1;entryDx=0;entryDy=0;entryPerimeter=0;startArrow=classic;startFill=1;" edge="1" parent="1" source="kXstX9Qdc0MzjJcm4sS2-73" target="kXstX9Qdc0MzjJcm4sS2-2">
          <mxGeometry relative="1" as="geometry">
            <mxPoint x="450" y="570" as="targetPoint" />
            <Array as="points">
              <mxPoint x="440" y="465" />
              <mxPoint x="440" y="570" />
              <mxPoint x="1060" y="570" />
            </Array>
          </mxGeometry>
        </mxCell>
        <mxCell id="kXstX9Qdc0MzjJcm4sS2-73" value="dwh_gacdw_update_statuses.ksh&lt;br&gt;" style="shape=process;whiteSpace=wrap;html=1;backgroundOutline=1;" vertex="1" parent="1">
          <mxGeometry x="160" y="450" width="240" height="30" as="geometry" />
        </mxCell>
        <mxCell id="kXstX9Qdc0MzjJcm4sS2-81" style="edgeStyle=orthogonalEdgeStyle;rounded=0;orthogonalLoop=1;jettySize=auto;html=1;exitX=0.5;exitY=1;exitDx=0;exitDy=0;entryX=0.5;entryY=0;entryDx=0;entryDy=0;" edge="1" parent="1" source="kXstX9Qdc0MzjJcm4sS2-78" target="kXstX9Qdc0MzjJcm4sS2-79">
          <mxGeometry relative="1" as="geometry" />
        </mxCell>
        <mxCell id="kXstX9Qdc0MzjJcm4sS2-78" value="autoload_daemon.ksh" style="shape=process;whiteSpace=wrap;html=1;backgroundOutline=1;" vertex="1" parent="1">
          <mxGeometry x="180" y="520" width="210" height="40" as="geometry" />
        </mxCell>
        <mxCell id="kXstX9Qdc0MzjJcm4sS2-84" style="edgeStyle=orthogonalEdgeStyle;rounded=0;orthogonalLoop=1;jettySize=auto;html=1;exitX=0.5;exitY=1;exitDx=0;exitDy=0;" edge="1" parent="1" source="kXstX9Qdc0MzjJcm4sS2-79" target="kXstX9Qdc0MzjJcm4sS2-83">
          <mxGeometry relative="1" as="geometry" />
        </mxCell>
        <mxCell id="kXstX9Qdc0MzjJcm4sS2-79" value="loadit_dwh.ksh" style="shape=process;whiteSpace=wrap;html=1;backgroundOutline=1;" vertex="1" parent="1">
          <mxGeometry x="210" y="590" width="160" height="30" as="geometry" />
        </mxCell>
        <mxCell id="kXstX9Qdc0MzjJcm4sS2-82" style="edgeStyle=orthogonalEdgeStyle;rounded=0;orthogonalLoop=1;jettySize=auto;html=1;exitX=1;exitY=0.5;exitDx=0;exitDy=0;entryX=0.855;entryY=1;entryDx=0;entryDy=-4.35;entryPerimeter=0;startArrow=classic;startFill=1;" edge="1" parent="1" source="kXstX9Qdc0MzjJcm4sS2-78" target="kXstX9Qdc0MzjJcm4sS2-2">
          <mxGeometry relative="1" as="geometry">
            <Array as="points">
              <mxPoint x="410" y="540" />
              <mxPoint x="410" y="600" />
              <mxPoint x="1088" y="600" />
            </Array>
          </mxGeometry>
        </mxCell>
        <mxCell id="kXstX9Qdc0MzjJcm4sS2-83" value="process_merge.pl&lt;br&gt;" style="shape=process;whiteSpace=wrap;html=1;backgroundOutline=1;" vertex="1" parent="1">
          <mxGeometry x="210" y="650" width="160" height="40" as="geometry" />
        </mxCell>
        <mxCell id="kXstX9Qdc0MzjJcm4sS2-85" style="edgeStyle=orthogonalEdgeStyle;rounded=0;orthogonalLoop=1;jettySize=auto;html=1;exitX=1;exitY=0.5;exitDx=0;exitDy=0;entryX=1;entryY=0;entryDx=0;entryDy=75;entryPerimeter=0;startArrow=classic;startFill=1;" edge="1" parent="1" source="kXstX9Qdc0MzjJcm4sS2-79" target="kXstX9Qdc0MzjJcm4sS2-2">
          <mxGeometry relative="1" as="geometry">
            <Array as="points">
              <mxPoint x="390" y="605" />
              <mxPoint x="390" y="630" />
              <mxPoint x="1120" y="630" />
              <mxPoint x="1120" y="225" />
            </Array>
          </mxGeometry>
        </mxCell>
        <mxCell id="kXstX9Qdc0MzjJcm4sS2-87" value="" style="endArrow=none;dashed=1;html=1;dashPattern=1 3;strokeWidth=2;rounded=0;" edge="1" parent="1">
          <mxGeometry width="50" height="50" relative="1" as="geometry">
            <mxPoint x="840" y="1100" as="sourcePoint" />
            <mxPoint x="840" y="750" as="targetPoint" />
            <Array as="points">
              <mxPoint x="840" y="860" />
            </Array>
          </mxGeometry>
        </mxCell>
        <mxCell id="kXstX9Qdc0MzjJcm4sS2-88" value="HWSW&lt;br&gt;ETL" style="rounded=1;whiteSpace=wrap;html=1;" vertex="1" parent="1">
          <mxGeometry x="930" y="870" width="120" height="60" as="geometry" />
        </mxCell>
        <mxCell id="kXstX9Qdc0MzjJcm4sS2-89" style="edgeStyle=orthogonalEdgeStyle;rounded=0;orthogonalLoop=1;jettySize=auto;html=1;exitX=0;exitY=0.5;exitDx=0;exitDy=0;entryX=1;entryY=0.5;entryDx=0;entryDy=0;entryPerimeter=0;" edge="1" parent="1" source="kXstX9Qdc0MzjJcm4sS2-88" target="kXstX9Qdc0MzjJcm4sS2-3">
          <mxGeometry relative="1" as="geometry" />
        </mxCell>
        <mxCell id="kXstX9Qdc0MzjJcm4sS2-90" value="SESDR.SYST_ID table&lt;br&gt;" style="edgeLabel;html=1;align=center;verticalAlign=middle;resizable=0;points=[];" vertex="1" connectable="0" parent="kXstX9Qdc0MzjJcm4sS2-89">
          <mxGeometry x="0.1591" y="2" relative="1" as="geometry">
            <mxPoint as="offset" />
          </mxGeometry>
        </mxCell>
        <mxCell id="kXstX9Qdc0MzjJcm4sS2-97" value="GACDW&lt;br&gt;ETL&lt;br&gt;&lt;br&gt;Updates MW_BASE_EXP_GACDW&lt;br&gt;DWH_EXPORT = N&lt;br&gt;DWH_EXPORT_TS = current timestamp" style="rounded=1;whiteSpace=wrap;html=1;" vertex="1" parent="1">
          <mxGeometry x="1215" y="150" width="185" height="180" as="geometry" />
        </mxCell>
        <mxCell id="kXstX9Qdc0MzjJcm4sS2-99" style="edgeStyle=orthogonalEdgeStyle;rounded=0;orthogonalLoop=1;jettySize=auto;html=1;exitX=0;exitY=0.5;exitDx=0;exitDy=0;entryX=1.03;entryY=0.385;entryDx=0;entryDy=0;entryPerimeter=0;" edge="1" parent="1" source="kXstX9Qdc0MzjJcm4sS2-97" target="kXstX9Qdc0MzjJcm4sS2-2">
          <mxGeometry relative="1" as="geometry" />
        </mxCell>
        <mxCell id="kXstX9Qdc0MzjJcm4sS2-100" value="" style="endArrow=none;dashed=1;html=1;dashPattern=1 3;strokeWidth=2;rounded=0;" edge="1" parent="1">
          <mxGeometry width="50" height="50" relative="1" as="geometry">
            <mxPoint x="1180" y="520" as="sourcePoint" />
            <mxPoint x="1180" y="60" as="targetPoint" />
            <Array as="points">
              <mxPoint x="1180" y="170" />
            </Array>
          </mxGeometry>
        </mxCell>
        <mxCell id="kXstX9Qdc0MzjJcm4sS2-104" style="edgeStyle=orthogonalEdgeStyle;rounded=0;orthogonalLoop=1;jettySize=auto;html=1;exitX=0;exitY=0.5;exitDx=0;exitDy=0;exitPerimeter=0;entryX=1;entryY=0.25;entryDx=0;entryDy=0;" edge="1" parent="1" source="kXstX9Qdc0MzjJcm4sS2-103" target="kXstX9Qdc0MzjJcm4sS2-65">
          <mxGeometry relative="1" as="geometry">
            <Array as="points">
              <mxPoint x="1275" y="440" />
              <mxPoint x="430" y="440" />
              <mxPoint x="430" y="390" />
            </Array>
          </mxGeometry>
        </mxCell>
        <mxCell id="kXstX9Qdc0MzjJcm4sS2-103" value="GACDW" style="shape=cylinder3;whiteSpace=wrap;html=1;boundedLbl=1;backgroundOutline=1;size=15;" vertex="1" parent="1">
          <mxGeometry x="1275" y="360" width="80" height="110" as="geometry" />
        </mxCell>
        <mxCell id="kXstX9Qdc0MzjJcm4sS2-107" value="" style="endArrow=none;dashed=1;html=1;dashPattern=1 3;strokeWidth=2;rounded=0;" edge="1" parent="1">
          <mxGeometry width="50" height="50" relative="1" as="geometry">
            <mxPoint x="-140" y="570" as="sourcePoint" />
            <mxPoint x="-140" y="80" as="targetPoint" />
            <Array as="points">
              <mxPoint x="-140" y="330" />
            </Array>
          </mxGeometry>
        </mxCell>
        <mxCell id="kXstX9Qdc0MzjJcm4sS2-108" value="manual load:&lt;br&gt;manual file is provided by end user to L1/L2" style="rounded=1;whiteSpace=wrap;html=1;" vertex="1" parent="1">
          <mxGeometry x="-330" y="460" width="120" height="60" as="geometry" />
        </mxCell>
      </root>
    </mxGraphModel>
  </diagram>
</mxfile>
